<?xml version="1.0" encoding="UTF-8"?>
<svg id="Layer_1" xmlns="http://www.w3.org/2000/svg" version="1.1" viewBox="0 0 40.07 30.05">
  <!-- Generator: Adobe Illustrator 30.4.0, SVG Export Plug-In . SVG Version: 2.1.4 Build 226)  -->
  <path d="M6.33,14.83c.1-.74.34-1.42.7-2.03.4-.68.94-1.27,1.56-1.75.76-.59,1.65-1.01,2.56-1.22s1.78-.22,2.62,0c.18.04.28.02.33-.1.32-1.86,1.39-3.54,2.82-4.82,1.25-1.12,2.77-1.92,4.31-2.28,1.59-.47,3.3-.52,4.92-.19s3.24,1.09,4.5,2.21,2.2,2.62,2.6,4.45c.31.45.36.32.61.41,1.08,0,2.01.44,2.76,1.12.67.61,1.21,1.41,1.62,2.25.47.96.76,1.97.88,2.81.19.77.19,1.76.1,2.69-.08.79-.22,1.55-.37,2.1-.32,1.16-1.02,2.17-1.96,2.95-1.12.93-2.57,1.53-4.11,1.64-1.62-.04-17.19.03-21.28,0-3.43-.04-3.17.1-5.57-.13-1.57-.2-3.35-.77-4.24-2.06-.71-1.33-.94-3.05-.55-4.55.26-1.01.81-1.92,1.68-2.55.5-.36,1.11-.63,1.84-.77.34-.04.79-.07,1.1-.05.3,0,.45.09.52-.05l.04-.11Z" fill="#888" stroke="#fff" stroke-miterlimit="10" stroke-width="2"/>
</svg>