<?xml version="1.0" encoding="UTF-8"?>
<svg xmlns="http://www.w3.org/2000/svg" version="1.1" viewBox="0 0 45.22 39.99">
  <!-- Generator: Adobe Illustrator 30.4.0, SVG Export Plug-In . SVG Version: 2.1.4 Build 226)  -->
  <g id="Layer_1" display="none">
    <path d="M16.61,18.35c.99,0,1.91.27,2.71.74.88.53,1.6,1.31,2.06,2.24.34.7.53,1.48.53,2.31,0,.66-.05,2.77-.68,2.73-2.55-.16-5.05-.57-7.89,1.42-.83.58-1.42-.62-1.75-1.99-.18-.76-.27-1.57-.27-2.17,0-1.33.49-2.55,1.3-3.48.97-1.11,2.4-1.81,3.99-1.81h0Z" fill="none" stroke="#fa0" stroke-linecap="round" stroke-width="2"/>
    <line x1="16.61" y1="15.17" x2="16.61" y2="17.29" fill="none" stroke="#fa0" stroke-linecap="round" stroke-width="2"/>
    <line x1="8.14" y1="23.64" x2="10.26" y2="23.64" fill="none" stroke="#fa0" stroke-linecap="round" stroke-width="2"/>
    <line x1="25.22" y1="23.64" x2="21.9" y2="23.64" fill="none" stroke="#fa0" stroke-linecap="round" stroke-width="2"/>
    <line x1="10.26" y1="17.29" x2="11.85" y2="18.88" fill="none" stroke="#fa0" stroke-linecap="round" stroke-width="2"/>
    <line x1="22.96" y1="17.29" x2="21.37" y2="18.88" fill="none" stroke="#fa0" stroke-linecap="round" stroke-width="2"/>
    <line x1="11.85" y1="28.4" x2="10.26" y2="29.99" fill="none" stroke="#fa0" stroke-linecap="round" stroke-width="2"/>
    <path d="M13.06,30.29c0-2.73,1.81-4.09,5.44-4.09s5.44,1.36,5.44,4.09c2.73,0,4.09,1.36,4.09,4.09s-1.36,4.09-4.09,4.09h-13.59c-2.73,0-4.09-1.36-4.09-4.09s1.36-4.09,4.09-4.09h2.73-.02Z" fill="none" stroke="#888" stroke-linecap="round" stroke-linejoin="round" stroke-width="2"/>
  </g>
  <g id="Layer_2">
    <g id="Layer_21" data-name="Layer_2">
      <line x1="18.82" y1="2.87" x2="18.82" y2="7.71" fill="none" stroke="#fff" stroke-linecap="round" stroke-width="5.5"/>
      <line x1="2.72" y1="19.63" x2="7.56" y2="19.63" fill="none" stroke="#fff" stroke-linecap="round" stroke-width="5.5"/>
      <line x1="7.17" y1="7.35" x2="10.39" y2="10.57" fill="none" stroke="#fff" stroke-linecap="round" stroke-width="5.5"/>
      <line x1="31.31" y1="7.35" x2="28.09" y2="10.58" fill="none" stroke="#fff" stroke-linecap="round" stroke-width="5.5"/>
    </g>
    <g id="Layer_3">
      <path d="M19.28,12.43c1.62,0,3.12.52,4.34,1.4.83.6,1.53,1.36,2.05,2.24.67,1.12,1.05,2.42,1.05,3.81,0,.9-.16,1.77-.45,2.57-.34.92-.86,1.76-1.51,2.47-.6.66-1.32,1.2-2.13,1.61-1.01.51-2.15.8-3.36.8-1.94,0-3.7-.74-5.03-1.95-.6-.55-1.11-1.2-1.51-1.92-.58-1.06-.91-2.28-.91-3.57,0-1.06.22-2.06.62-2.97.33-.75.77-1.43,1.31-2.02.67-.74,1.48-1.34,2.39-1.76s2.01-.69,3.13-.69v-.02Z" fill="#fa0" stroke="#fff" stroke-miterlimit="10" stroke-width="1.5"/>
      <line x1="18.82" y1="2.87" x2="18.82" y2="7.71" fill="none" stroke="#fa0" stroke-linecap="round" stroke-width="3"/>
      <line x1="2.72" y1="19.63" x2="7.56" y2="19.63" fill="none" stroke="#fa0" stroke-linecap="round" stroke-width="3"/>
      <line x1="7.17" y1="7.35" x2="10.39" y2="10.57" fill="none" stroke="#fa0" stroke-linecap="round" stroke-width="3"/>
      <line x1="31.31" y1="7.35" x2="28.09" y2="10.58" fill="none" stroke="#fa0" stroke-linecap="round" stroke-width="3"/>
    </g>
  </g>
  <g id="Layer_31" data-name="Layer_3">
    <path d="M11.55,28.71c.1-.74.34-1.42.7-2.03.4-.68.94-1.27,1.56-1.75.76-.59,1.65-1.01,2.56-1.22s1.78-.22,2.62,0c.18.04.28.02.33-.1.32-1.86,1.39-3.54,2.82-4.82,1.25-1.12,2.77-1.92,4.31-2.28,1.59-.47,3.3-.52,4.92-.19s3.24,1.09,4.5,2.21,2.2,2.62,2.6,4.45c.31.45.36.32.61.41,1.08,0,2.01.44,2.76,1.12.67.61,1.21,1.41,1.62,2.25.47.96.76,1.97.88,2.81.19.77.19,1.76.1,2.69-.08.79-.22,1.55-.37,2.1-.32,1.16-1.02,2.17-1.96,2.95-1.12.93-2.57,1.53-4.11,1.64-1.62-.04-17.19.03-21.28,0-3.43-.04-3.17.1-5.57-.13-1.57-.2-3.35-.77-4.24-2.06-.71-1.33-.94-3.05-.55-4.55.26-1.01.81-1.92,1.68-2.55.5-.36,1.11-.63,1.84-.77.34-.04.79-.07,1.1-.05.3,0,.45.09.52-.05l.04-.11Z" fill="#888" stroke="#fff" stroke-miterlimit="10" stroke-width="2"/>
  </g>
</svg>